<svg width="192" height="40" viewBox="0 0 192 40" fill="none" xmlns="http://www.w3.org/2000/svg">
<foreignObject x="-48" y="-48" width="288" height="136"><div xmlns="http://www.w3.org/1999/xhtml" style="backdrop-filter:blur(24px);clip-path:url(#bgblur_1_320_12579_clip_path);height:100%;width:100%"></div></foreignObject><g filter="url(#filter0_iii_320_12579)" data-figma-bg-blur-radius="48">
<g clip-path="url(#clip0_320_12579)">
<path d="M0 20C0 8.95431 8.9543 0 20 0H172C183.046 0 192 8.95431 192 20C192 31.0457 183.046 40 172 40H20C8.95431 40 0 31.0457 0 20Z" fill="#3730EA"/>
<g filter="url(#filter1_f_320_12579)">
<path d="M116.077 18C116.077 32.0833 166.158 37.2188 92.3595 42C31.1121 41.2031 77.0765 32.0833 77.0765 18C77.0765 3.91674 27.5979 -8.20312 92.3595 -9C151.599 -7.9375 116.077 3.91674 116.077 18Z" fill="#A19DFF"/>
</g>
</g>
</g>
<defs>
<filter id="filter0_iii_320_12579" x="-48" y="-48" width="288" height="136" filterUnits="userSpaceOnUse" color-interpolation-filters="sRGB">
<feFlood flood-opacity="0" result="BackgroundImageFix"/>
<feBlend mode="normal" in="SourceGraphic" in2="BackgroundImageFix" result="shape"/>
<feColorMatrix in="SourceAlpha" type="matrix" values="0 0 0 0 0 0 0 0 0 0 0 0 0 0 0 0 0 0 127 0" result="hardAlpha"/>
<feOffset dx="-26" dy="4"/>
<feGaussianBlur stdDeviation="25"/>
<feComposite in2="hardAlpha" operator="arithmetic" k2="-1" k3="1"/>
<feColorMatrix type="matrix" values="0 0 0 0 0.215686 0 0 0 0 0.188235 0 0 0 0 0.917647 0 0 0 1 0"/>
<feBlend mode="normal" in2="shape" result="effect1_innerShadow_320_12579"/>
<feColorMatrix in="SourceAlpha" type="matrix" values="0 0 0 0 0 0 0 0 0 0 0 0 0 0 0 0 0 0 127 0" result="hardAlpha"/>
<feOffset dx="-9" dy="3"/>
<feGaussianBlur stdDeviation="10"/>
<feComposite in2="hardAlpha" operator="arithmetic" k2="-1" k3="1"/>
<feColorMatrix type="matrix" values="0 0 0 0 0.631373 0 0 0 0 0.615686 0 0 0 0 1 0 0 0 1 0"/>
<feBlend mode="normal" in2="effect1_innerShadow_320_12579" result="effect2_innerShadow_320_12579"/>
<feColorMatrix in="SourceAlpha" type="matrix" values="0 0 0 0 0 0 0 0 0 0 0 0 0 0 0 0 0 0 127 0" result="hardAlpha"/>
<feOffset dx="-3"/>
<feGaussianBlur stdDeviation="4.5"/>
<feComposite in2="hardAlpha" operator="arithmetic" k2="-1" k3="1"/>
<feColorMatrix type="matrix" values="0 0 0 0 1 0 0 0 0 1 0 0 0 0 1 0 0 0 1 0"/>
<feBlend mode="normal" in2="effect2_innerShadow_320_12579" result="effect3_innerShadow_320_12579"/>
</filter>
<clipPath id="bgblur_1_320_12579_clip_path" transform="translate(48 48)"><path d="M0 20C0 8.95431 8.9543 0 20 0H172C183.046 0 192 8.95431 192 20C192 31.0457 183.046 40 172 40H20C8.95431 40 0 31.0457 0 20Z"/>
</clipPath><filter id="filter1_f_320_12579" x="39" y="-29" width="113.679" height="91" filterUnits="userSpaceOnUse" color-interpolation-filters="sRGB">
<feFlood flood-opacity="0" result="BackgroundImageFix"/>
<feBlend mode="normal" in="SourceGraphic" in2="BackgroundImageFix" result="shape"/>
<feGaussianBlur stdDeviation="10" result="effect1_foregroundBlur_320_12579"/>
</filter>
<clipPath id="clip0_320_12579">
<path d="M0 20C0 8.95431 8.9543 0 20 0H172C183.046 0 192 8.95431 192 20C192 31.0457 183.046 40 172 40H20C8.95431 40 0 31.0457 0 20Z" fill="white"/>
</clipPath>
</defs>
</svg>
