<svg width="1949" height="1751" viewBox="0 0 1949 1751" fill="none" xmlns="http://www.w3.org/2000/svg">
<g opacity="0.05" clip-path="url(#clip0_670_1273)">
<path d="M862.931 1503C937.804 1436.18 1086.97 1276.72 1084.65 1173.43C1081.75 1044.32 997.393 1047.41 901.741 1116.2C806.088 1185 728.846 1133.03 805.062 1019.74C881.279 906.455 1093.4 808.34 1064.66 684.282C1041.67 585.035 952.523 633.617 911.456 684.282" stroke="#EAF0FF" stroke-width="22.3913" stroke-linecap="round" stroke-linejoin="round"/>
<path d="M902.978 1032.84C923.546 1008.53 978.639 949.838 1034.47 909.584C1104.25 859.267 1213.4 738.517 1166.6 611.091C1129.15 509.151 1065.78 540.938 993.812 557.461" stroke="#EAF0FF" stroke-width="22.3913" stroke-linecap="round" stroke-linejoin="round"/>
<path d="M963.64 723.994C954.315 731.184 924.035 761.849 899.691 820.272C875.346 878.696 753.241 846.135 729.702 876.676C706.163 907.217 753.232 943.374 729.702 992.165C718.704 1014.97 683.496 1029.22 663.16 1034.98" stroke="#EAF0FF" stroke-width="22.3913" stroke-linecap="round" stroke-linejoin="round"/>
<path d="M745.363 348.801C787.112 386.666 924.368 477.914 915.009 515.665C903.312 562.853 845.141 558.198 724.305 453.769C603.469 349.34 502.382 279.82 484.45 331.932C466.519 384.044 540.326 565.583 744.307 645.429C917.598 713.261 804.773 810.477 744.307 782.727C702.03 763.325 609.186 759.739 643.232 864.407C677.279 969.074 637.487 995.443 553.247 975.958C485.855 960.37 290.27 809.227 200.901 735.604" stroke="white" stroke-width="22.3913" stroke-linecap="round" stroke-linejoin="round"/>
<path d="M2073.58 1343.47C2114.89 1290.97 2192.31 1174.11 2171.58 1126.65C2145.66 1067.33 2071.6 1077.34 2003.55 1214.08C1935.5 1350.81 1805.65 1445.97 1782.87 1297.5C1760.08 1149.02 1993.91 1050.51 1896.33 1004.31C1818.27 967.351 1770.61 1045.9 1756.54 1089.79" stroke="#EAF0FF" stroke-width="22.3913" stroke-linecap="round" stroke-linejoin="round"/>
<path d="M400.327 989.809C505.427 1021.12 710.437 1106.58 689.671 1197.93C663.715 1312.12 493.709 1133.42 489.867 1228.08C486.026 1322.74 671.655 1365.28 655.132 1497.81C642.062 1602.64 477.254 1596.56 388.08 1519.78C206.239 1363.2 176.308 1441.85 176.308 1497.81C176.308 1642.19 267.141 1611.31 238.68 1734.41" stroke="#EAF0FF" stroke-width="22.3913" stroke-linecap="round" stroke-linejoin="round"/>
<path d="M400.327 -740.359C505.427 -709.047 710.437 -623.585 689.671 -532.234C663.715 -418.046 493.709 -596.749 489.867 -502.091C486.026 -407.433 671.655 -364.892 655.132 -232.362C642.062 -127.525 489.867 -111.683 396.039 -182.706C254.455 -289.878 132.69 -380.346 196.054 -221.026C259.417 -61.7063 267.141 -118.863 238.68 4.23877" stroke="#EAF0FF" stroke-width="22.3913" stroke-linecap="round" stroke-linejoin="round"/>
<path d="M673.927 1666.09C621.327 1676.08 499.913 1687.26 435.063 1652C370.213 1616.75 290.672 1549.38 259.007 1520.1" stroke="#EAF0FF" stroke-width="22.3913" stroke-linecap="round" stroke-linejoin="round"/>
<path d="M343.414 1343.47C384.718 1290.98 462.143 1174.11 441.411 1126.65C415.496 1067.33 341.436 1077.35 273.383 1214.08C205.33 1350.81 75.4838 1445.97 52.6984 1297.5C29.9131 1149.02 263.743 1050.51 166.165 1004.31C88.1023 967.351 40.4459 1045.9 26.3755 1089.79" stroke="#EAF0FF" stroke-width="22.3913" stroke-linecap="round" stroke-linejoin="round"/>
<path d="M976.305 1232.2C922.092 1297.95 802.286 1417.92 756.761 1371.73C711.236 1325.55 772.213 1244.99 808.392 1210.49" stroke="#EAF0FF" stroke-width="22.3913" stroke-linecap="round" stroke-linejoin="round"/>
<path d="M754.586 1561.74C738.681 1605.4 728.592 1684.88 815.48 1653.58C924.09 1614.44 994.633 1458.44 1023.58 1450.99C1052.53 1443.54 1061.86 1436.35 1052.77 1549.92C1043.69 1663.49 1288.01 1527.15 1377.2 1356.77" stroke="white" stroke-width="22.3913" stroke-linecap="round" stroke-linejoin="round"/>
<path d="M1091.98 996.214C1142.05 933.653 1258.6 820.167 1324.22 866.713C1406.26 924.896 1320.29 1036.37 1222.67 1163.68C1125.05 1291 1091.99 1388.73 1183.97 1388.73C1292.54 1388.73 1443.41 1178.78 1506.85 991.075C1570.3 803.371 1527.25 725.04 1369.73 687.884" stroke="#EAF0FF" stroke-width="22.3913" stroke-linecap="round" stroke-linejoin="round"/>
<path d="M1344.69 773.212C1301.21 770.39 1250.52 729.769 1250.74 676.063C1251.02 608.932 1298.49 602.426 1361.13 583.759C1439.72 560.335 1511.06 472.906 1396.61 427.325C1305.04 390.86 1189.21 379.057 1142.74 377.714" stroke="white" stroke-width="22.3913" stroke-linecap="round" stroke-linejoin="round"/>
<path d="M1319.49 510.75C1226.37 494.981 1055.82 472.556 1046.46 406.416C1034.76 323.742 1094.64 273.551 1195.16 275.351C1295.68 277.152 1338.37 158.519 1267.87 141.008C1197.37 123.498 1094.32 161.499 1056.01 141.008C1022.53 123.101 1027.02 77.8599 1067.17 27.0769" stroke="#EAF0FF" stroke-width="22.3913" stroke-linecap="round" stroke-linejoin="round"/>
<path d="M855.017 224.31L845.363 213.67" stroke="#EAF0FF" stroke-width="22.3913" stroke-linecap="round" stroke-linejoin="round"/>
<path d="M1503.39 434.221C1531.62 428.914 1586.64 429.459 1580.87 474.094C1575.1 518.729 1529.68 540.126 1507.7 545.245" stroke="#EAF0FF" stroke-width="22.3913" stroke-linecap="round" stroke-linejoin="round"/>
<path d="M1469.01 646.593C1530.98 636.3 1659.91 594.393 1679.89 509.114C1704.87 402.515 1599.72 371.58 1532.92 368.725C1466.12 365.87 1365.01 347.017 1379.88 296.916C1394.75 246.815 1496.21 228.78 1557.07 141.873C1610.68 65.3163 1437.01 -36.7425 1306.34 21.5098" stroke="#EAF0FF" stroke-width="22.3913" stroke-linecap="round" stroke-linejoin="round"/>
<path d="M1469.01 2376.76C1530.98 2366.47 1659.91 2324.56 1679.89 2239.28C1704.87 2132.68 1599.72 2101.75 1532.92 2098.89C1466.12 2096.04 1365.01 2077.19 1379.88 2027.08C1394.75 1976.98 1464.49 1957.1 1543.6 1886.4C1622.71 1815.7 1437.01 1693.43 1306.34 1751.68" stroke="#EAF0FF" stroke-width="22.3913" stroke-linecap="round" stroke-linejoin="round"/>
<path d="M1377.48 181.928C1460.35 133.57 1441.06 82.4435 1333.27 82.4434" stroke="#EAF0FF" stroke-width="22.3913" stroke-linecap="round" stroke-linejoin="round"/>
<path d="M1471.27 1257C1533.95 1169.01 1656.94 968.108 1647.45 868.367C1635.58 743.691 1571.29 721.387 1651.4 664.576C1731.51 607.764 1874.84 581.514 1816.81 380.904C1770.39 220.417 1591.67 226.132 1494.96 280.027" stroke="#EAF0FF" stroke-width="22.3913" stroke-linecap="round" stroke-linejoin="round"/>
<path d="M-258.902 1257C-196.218 1169.01 -73.2251 968.108 -82.7201 868.367C-94.589 743.691 -158.874 721.387 -78.7638 664.576C1.34622 607.764 144.673 581.514 86.6476 380.904C40.2271 220.416 -111.398 238.69 -181.408 267.888" stroke="#EAF0FF" stroke-width="22.3913" stroke-linecap="round" stroke-linejoin="round"/>
<path d="M251.397 562.391C229.539 549.328 195.737 509.119 235.393 452.785C284.962 382.367 370.692 410.915 406.852 431.85C443.013 452.785 347.044 322.059 418.531 251.826C497.426 174.314 610.579 247.501 658.159 281.758C705.739 316.015 601.929 227.949 691.465 126.994C781.001 26.039 839.221 60.3828 877.371 60.3827" stroke="#EAF0FF" stroke-width="22.3913" stroke-linecap="round" stroke-linejoin="round"/>
<path d="M1159.99 74.3112C1175.85 21.2816 1238.44 -89.0512 1361.91 -106.145C1516.24 -127.513 1608.89 -39.7068 1618.4 -8.82334C1627.92 22.0602 1644.53 69.5532 1701.54 88.585" stroke="#EAF0FF" stroke-width="22.3913" stroke-linecap="round" stroke-linejoin="round"/>
<path d="M1159.99 1804.48C1175.85 1751.45 1230.31 1663.26 1353.77 1646.17C1508.1 1624.8 1608.89 1690.46 1618.4 1721.34C1627.92 1752.23 1644.53 1799.72 1701.54 1818.75" stroke="#EAF0FF" stroke-width="22.3913" stroke-linecap="round" stroke-linejoin="round"/>
<path d="M1741.94 878.147C1720.19 846.514 1689.75 773.784 1741.94 735.928C1807.16 688.608 1826.97 607.549 1877.32 560.143" stroke="#EAF0FF" stroke-width="22.3913" stroke-linecap="round" stroke-linejoin="round"/>
<path d="M11.7685 878.147C-9.97396 846.514 -40.4134 773.784 11.7685 735.928C76.9958 688.608 96.8066 607.549 147.154 560.143" stroke="#EAF0FF" stroke-width="22.3913" stroke-linecap="round" stroke-linejoin="round"/>
<path d="M453.184 537.66C423.885 518.946 360.313 485.353 340.418 500.693C315.55 519.867 319.088 579.096 387.455 613.123C455.821 647.149 556.56 682.644 505.211 776.758C464.133 852.049 343.058 770.098 266.622 690.25C222.467 656.555 136.056 615.56 129.852 715.51C122.096 840.448 249.497 835.974 284.381 890.86C319.266 945.745 325.012 1052.84 162.018 1252.86" stroke="#EAF0FF" stroke-width="22.3913" stroke-linecap="round" stroke-linejoin="round"/>
<path d="M1628.96 154.331C1709.06 146.026 1910.71 183 1916.25 290.409C1921.79 397.818 1897.91 449.873 1885.28 462.474" stroke="#EAF0FF" stroke-width="22.3913" stroke-linecap="round" stroke-linejoin="round"/>
<path d="M0.176514 149.314C59.8385 151.593 180.547 183.001 186.083 290.41C191.62 397.818 167.743 449.873 155.113 462.475" stroke="#EAF0FF" stroke-width="22.3913" stroke-linecap="round" stroke-linejoin="round"/>
<path d="M304.872 337.73C299.768 269.532 320.08 133.76 442.161 136.251C594.761 139.366 664.92 87.3742 683.26 38.5835" stroke="#EAF0FF" stroke-width="22.3913" stroke-linecap="round" stroke-linejoin="round"/>
<path d="M1892.36 1781.91C1868.19 1719.64 1807.01 1593.51 1755.61 1587.19C1691.35 1579.3 1662.28 1648.15 1745.33 1776.33" stroke="#EAF0FF" stroke-width="22.3913" stroke-linecap="round" stroke-linejoin="round"/>
<path d="M1852.34 1842.23L1776.86 1695.32" stroke="#EAF0FF" stroke-width="22.3913" stroke-linecap="round" stroke-linejoin="round"/>
<path d="M1892.36 1781.91C1868.19 1719.64 1807.01 1593.51 1755.61 1587.19C1691.35 1579.3 1662.28 1648.15 1745.33 1776.33" stroke="white" stroke-width="22.3913" stroke-linecap="round" stroke-linejoin="round"/>
<path d="M1892.35 51.7453C1868.19 -10.5308 1807.01 -136.661 1755.61 -142.974C1691.35 -150.865 1662.28 -82.0183 1745.33 46.1587" stroke="white" stroke-width="22.3913" stroke-linecap="round" stroke-linejoin="round"/>
<path d="M162.187 51.7453C138.022 -10.5308 76.8426 -136.661 25.4392 -142.974C-38.8151 -150.865 -67.892 -82.0183 15.1611 46.1587" stroke="white" stroke-width="22.3913" stroke-linecap="round" stroke-linejoin="round"/>
<path d="M162.187 1781.91C138.023 1719.64 76.8428 1593.51 25.4394 1587.19C-38.8149 1579.3 -67.8918 1648.15 15.1614 1776.33" stroke="white" stroke-width="22.3913" stroke-linecap="round" stroke-linejoin="round"/>
<path d="M999.434 473.2C969.78 457.239 901.074 412.99 970.022 317.658" stroke="#EAF0FF" stroke-width="22.3913" stroke-linecap="round" stroke-linejoin="round"/>
<path d="M877.429 616.37C812.67 597.736 664.19 533.949 588.347 427.87" stroke="#EAF0FF" stroke-width="22.3913" stroke-linecap="round" stroke-linejoin="round"/>
<path d="M559.625 901.329C546.256 860.419 566.928 783.532 593.789 748.943C627.365 705.706 668.75 688.667 714.833 700.222" stroke="#EAF0FF" stroke-width="22.3913" stroke-linecap="round" stroke-linejoin="round"/>
<path d="M584.933 644.248L515.238 598.855" stroke="#EAF0FF" stroke-width="22.3913" stroke-linecap="round" stroke-linejoin="round"/>
<path d="M452.813 727.017C428.245 729.438 368.616 702.792 305.378 639.554" stroke="#EAF0FF" stroke-width="22.3913" stroke-linecap="round" stroke-linejoin="round"/>
<path d="M256.215 957.182C228.814 923.787 158.825 866.229 98.0782 903.154" stroke="#EAF0FF" stroke-width="22.3913" stroke-linecap="round" stroke-linejoin="round"/>
<path d="M663.977 1331.75L594.281 1286.35" stroke="#EAF0FF" stroke-width="22.3913" stroke-linecap="round" stroke-linejoin="round"/>
<path d="M608.964 1151.12L501.704 1114.86" stroke="#EAF0FF" stroke-width="22.3913" stroke-linecap="round" stroke-linejoin="round"/>
<path d="M271.129 1339.73L359.162 1199.98" stroke="#EAF0FF" stroke-width="22.3913" stroke-linecap="round" stroke-linejoin="round"/>
<path d="M863.929 1430.34C837.819 1444.69 777.625 1470.12 745.732 1457.04" stroke="#EAF0FF" stroke-width="22.3913" stroke-linecap="round" stroke-linejoin="round"/>
<path d="M393.372 1418.89C402.064 1377.94 434.515 1351.92 466.937 1347.98" stroke="#EAF0FF" stroke-width="22.3913" stroke-linecap="round" stroke-linejoin="round"/>
<path d="M975.352 1131.31L872.059 1215.91" stroke="#EAF0FF" stroke-width="22.3913" stroke-linecap="round" stroke-linejoin="round"/>
<path d="M1398.67 1503.17C1390.54 1513.3 1161.09 1702.96 1056.96 1659.49C1029.3 1647.94 988.275 1624.8 974.347 1597.12" stroke="#EAF0FF" stroke-width="22.3913" stroke-linecap="round" stroke-linejoin="round"/>
<path d="M1232.47 1436.58C1210 1458.87 1155.91 1500.57 1119.33 1489.13" stroke="#EAF0FF" stroke-width="22.3913" stroke-linecap="round" stroke-linejoin="round"/>
<path d="M1770.83 1439.02C1796.46 1457.59 1846.37 1504.21 1841 1542.16" stroke="#EAF0FF" stroke-width="22.3913" stroke-linecap="round" stroke-linejoin="round"/>
<path d="M1400.19 1024.78C1429.5 985.652 1475.95 889.039 1427.23 815.573" stroke="#EAF0FF" stroke-width="22.3913" stroke-linecap="round" stroke-linejoin="round"/>
<path d="M1328.94 1159L1215.06 1303.8" stroke="#EAF0FF" stroke-width="22.3913" stroke-linecap="round" stroke-linejoin="round"/>
<path d="M1156.96 1099.77L1273.23 958.081" stroke="#EAF0FF" stroke-width="22.3913" stroke-linecap="round" stroke-linejoin="round"/>
<path d="M1183.14 204.308L1008.17 219.803" stroke="#EAF0FF" stroke-width="22.3913" stroke-linecap="round" stroke-linejoin="round"/>
<path d="M1323.37 322.711L1268.04 322.711" stroke="#EAF0FF" stroke-width="22.3913" stroke-linecap="round" stroke-linejoin="round"/>
<path d="M974.669 108.389L955.748 56.3966" stroke="#EAF0FF" stroke-width="22.3913" stroke-linecap="round" stroke-linejoin="round"/>
<path d="M1589.34 1454.23L1563.56 1419.28" stroke="#EAF0FF" stroke-width="22.3913" stroke-linecap="round" stroke-linejoin="round"/>
<path d="M209.957 188.035L281.069 73.7898" stroke="#EAF0FF" stroke-width="22.3913" stroke-linecap="round" stroke-linejoin="round"/>
<path d="M965.877 1684.62L878.409 1690.11" stroke="#EAF0FF" stroke-width="22.3913" stroke-linecap="round" stroke-linejoin="round"/>
<path d="M1729.72 523.666C1760.12 512.482 1784.58 364.373 1673.77 330.202" stroke="#EAF0FF" stroke-width="22.3913" stroke-linecap="round" stroke-linejoin="round"/>
<path d="M1590.89 1233.61C1624.49 1183.26 1695.22 1063.6 1709.41 987.752" stroke="white" stroke-width="22.3913" stroke-linecap="round" stroke-linejoin="round"/>
<path d="M1852.34 1842.22L1776.86 1695.31" stroke="white" stroke-width="22.3913" stroke-linecap="round" stroke-linejoin="round"/>
<path d="M1852.34 112.056L1776.86 -34.8533" stroke="white" stroke-width="22.3913" stroke-linecap="round" stroke-linejoin="round"/>
<path d="M122.171 112.056L46.6942 -34.8533" stroke="white" stroke-width="22.3913" stroke-linecap="round" stroke-linejoin="round"/>
<path d="M122.171 1842.22L46.6942 1695.31" stroke="white" stroke-width="22.3913" stroke-linecap="round" stroke-linejoin="round"/>
<path d="M46.7181 1445.25C72.3459 1463.82 122.259 1510.44 116.888 1548.39" stroke="#EAF0FF" stroke-width="22.3913" stroke-linecap="round" stroke-linejoin="round"/>
<path d="M331.158 1663.64C337.098 1705.28 366.379 1752.86 420.953 1770.13C441.456 1776.62 499.849 1786.31 551.754 1779.82" stroke="#EAF0FF" stroke-width="22.3913" stroke-linecap="round" stroke-linejoin="round"/>
<path d="M331.158 -66.5269C337.098 -24.8875 366.379 22.6947 420.953 39.965C441.456 46.4531 499.849 56.142 551.754 49.6539" stroke="#EAF0FF" stroke-width="22.3913" stroke-linecap="round" stroke-linejoin="round"/>
<circle cx="852.284" cy="219.039" r="86.8544" stroke="#EAF0FF" stroke-width="22.3913" stroke-linecap="round" stroke-linejoin="round"/>
<circle cx="1573.94" cy="1433.44" r="110.904" stroke="#EAF0FF" stroke-width="22.3913" stroke-linecap="round" stroke-linejoin="round"/>
<circle cx="510.489" cy="1463.29" r="58.7392" stroke="#EAF0FF" stroke-width="22.3913" stroke-linecap="round" stroke-linejoin="round"/>
</g>
<defs>
<clipPath id="clip0_670_1273">
<rect width="1948.04" height="1751" fill="white"/>
</clipPath>
</defs>
</svg>
