<svg width="40" height="40" viewBox="0 0 40 40" fill="none" xmlns="http://www.w3.org/2000/svg">
<rect x="0.5" y="0.5" width="39" height="39" rx="7.5" stroke="#8B91CF" stroke-opacity="0.1"/>
<path fill-rule="evenodd" clip-rule="evenodd" d="M17.3233 11.127C16.1604 11.7482 15.2047 12.2726 15.2083 12.295C15.2083 12.3508 18.0029 13.7977 18.101 13.7939C18.1447 13.7939 18.4717 13.6377 18.8279 13.4517L19.4747 13.1133L20.1798 13.4852L20.8848 13.8572L22.0404 13.3253C23.7775 12.5256 23.9592 12.4363 23.9302 12.4103C23.8938 12.3694 23.2688 12.0272 21.5753 11.1159C20.7576 10.677 19.9653 10.2418 19.8127 10.1562C19.6601 10.067 19.5147 10 19.4893 10C19.4638 10 18.4863 10.5059 17.3233 11.127ZM12.2174 13.8349L11.0036 14.4746V17.2866C11.0036 18.8339 11.0182 20.0986 11.04 20.0986C11.0581 20.0986 11.6541 19.8345 12.3664 19.5109L13.6565 18.9232V15.9587L14.2852 16.3083C14.7722 16.5799 15.2555 16.8477 15.7425 17.1192L16.5711 17.5767L16.9381 17.4056C17.1707 17.2977 17.3997 17.1899 17.6286 17.082C17.8067 16.9965 18.2428 16.7956 18.5989 16.6357C18.9551 16.4757 19.2821 16.3121 19.3294 16.2749C19.3912 16.2265 18.6353 15.7988 16.5347 14.6941C14.9503 13.8609 13.602 13.1839 13.5402 13.1877C13.4785 13.1914 12.8825 13.4815 12.2174 13.8349ZM24.1446 14.0134C23.3196 14.3965 22.6437 14.7238 22.6437 14.7424C22.6437 14.761 23.0943 15.0363 23.6431 15.3524C24.1955 15.6686 24.6424 15.9438 24.6424 15.9662C24.6424 15.9885 24.1555 16.2302 23.5595 16.5018C22.9635 16.777 21.459 17.4726 20.2125 18.0491L16.0441 19.9795C14.9939 20.4631 14.049 20.902 13.9436 20.9503C11.8031 21.9435 11.2108 22.2187 11.1308 22.2671C11.0509 22.3154 11.0327 22.5907 11.0182 23.9781L11 25.6333L12.083 26.1986L13.1659 26.764L14.6704 26.0684C15.4954 25.6853 16.175 25.3543 16.175 25.3282C16.175 25.3022 16.0223 25.2018 15.837 25.1014C15.6517 25.0009 15.2664 24.7778 14.9793 24.6067C14.6959 24.4356 14.4124 24.2793 14.3506 24.257C14.2889 24.2347 14.238 24.2012 14.238 24.1752C14.238 24.1529 14.8994 23.8293 15.7098 23.461C17.2797 22.7432 18.479 22.189 21.0556 20.995C22.2076 20.4631 23.3596 19.9275 24.5153 19.3956C25.5292 18.9269 26.7066 18.3801 27.1318 18.1793L27.9059 17.8148L27.924 16.141L27.9422 14.4672L26.8447 13.8944C26.2415 13.5782 25.7218 13.3178 25.6963 13.3178C25.6673 13.3178 24.9695 13.634 24.1446 14.0134ZM27.6151 20.0539C27.4516 20.1358 27.1318 20.2883 26.9029 20.3924C26.6739 20.4966 26.2378 20.6974 25.9362 20.8388L25.3874 21.0954L25.3765 22.5646C25.3693 23.3718 25.3402 24.0301 25.3111 24.0264C25.2457 24.0152 24.2173 23.4759 23.1815 22.9068C22.4329 22.4977 22.3857 22.4791 22.2112 22.5683C22.1095 22.6204 21.5026 22.8994 20.863 23.1858C20.2234 23.4759 19.6783 23.7288 19.6528 23.7549C19.6274 23.7772 20.9138 24.4914 22.5165 25.3431L25.4238 26.8905L26.6666 26.2321C27.3499 25.8713 27.9313 25.5403 27.9568 25.4993C28.0185 25.4064 28.0113 19.894 27.9531 19.9014C27.9277 19.9052 27.775 19.9721 27.6151 20.0539ZM20.7321 26.5222C20.5177 26.6152 20.2997 26.7119 20.0853 26.8086C19.4348 27.095 19.562 27.1062 18.7879 26.7119C18.2719 26.4478 18.0502 26.3697 17.9521 26.4069C17.8794 26.4367 17.2579 26.7231 16.5675 27.043C15.8806 27.3628 15.2919 27.6269 15.2628 27.6269C14.9721 27.6269 15.4554 27.9208 17.3088 28.8767L19.482 30L20.3978 29.5388C20.8993 29.2858 21.9169 28.7763 22.651 28.408C23.3887 28.0398 23.981 27.7311 23.9701 27.7162C23.9592 27.705 23.3414 27.3814 22.5964 26.9946L21.2446 26.2953L20.7321 26.5222Z" fill="#EAF0FF"/>
</svg>
