<svg width="40" height="40" viewBox="0 0 40 40" fill="none" xmlns="http://www.w3.org/2000/svg">
<rect x="0.5" y="0.5" width="39" height="39" rx="7.5" stroke="#8B91CF" stroke-opacity="0.1"/>
<path d="M14.7967 19.9983C14.7967 19.553 15.1585 19.1872 15.5981 19.1872H16.9499C17.3904 19.1872 17.7674 19.553 17.7674 20.0145V25.1685C17.9247 25.1207 18.1132 25.0729 18.3338 25.025C18.6323 24.9455 18.8529 24.6754 18.8529 24.3567V17.9618C18.8529 17.5165 19.2147 17.1346 19.6704 17.1346H21.0222C21.4626 17.1346 21.8397 17.5003 21.8397 17.9618V23.896C21.8397 23.896 22.1702 23.7525 22.4999 23.6097C22.7518 23.4986 22.9091 23.2602 22.9091 22.9731V15.8945C22.9091 15.4492 23.2709 15.0672 23.7113 15.0672H25.0631C25.5036 15.0672 25.8654 15.433 25.8654 15.8945V21.733C27.0286 20.8741 28.224 19.8401 29.1674 18.5992C29.4506 18.2334 29.5292 17.7558 29.372 17.3105C27.6423 12.2838 22.203 9.61067 17.2347 11.3608C12.2663 13.111 9.62527 18.6147 11.3542 23.6422C11.5427 24.2147 11.7946 24.7557 12.093 25.2804C12.3289 25.6941 12.7693 25.9325 13.241 25.8847C13.4929 25.8685 13.8074 25.8368 14.1998 25.789C14.5455 25.7573 14.7974 25.4548 14.7974 25.1045L14.7967 19.9983Z" fill="#EAF0FF"/>
<path d="M14.6596 28.1399C18.9767 31.2999 25.0147 30.3373 28.1524 25.9908C29.3473 24.3225 30 22.3173 30 20.2647C30 20.0398 29.9838 19.8157 29.9683 19.5908C26.4486 24.8999 19.9327 27.386 14.6596 28.1399Z" fill="#EAF0FF"/>
</svg>
