<svg width="54" height="54" viewBox="0 0 54 54" fill="none" xmlns="http://www.w3.org/2000/svg">
<g opacity="0.3" clip-path="url(#clip0_300_5408)">
<path d="M43.875 16.875H37.125V11.8125C37.125 9.12718 36.0583 6.55185 34.1595 4.65304C32.2607 2.75424 29.6853 1.6875 27 1.6875C24.3147 1.6875 21.7394 2.75424 19.8405 4.65304C17.9417 6.55185 16.875 9.12718 16.875 11.8125V16.875H10.125C9.22989 16.875 8.37145 17.2306 7.73851 17.8635C7.10558 18.4965 6.75 19.3549 6.75 20.25V43.875C6.75 44.7701 7.10558 45.6285 7.73851 46.2615C8.37145 46.8944 9.22989 47.25 10.125 47.25H43.875C44.7701 47.25 45.6285 46.8944 46.2615 46.2615C46.8944 45.6285 47.25 44.7701 47.25 43.875V20.25C47.25 19.3549 46.8944 18.4965 46.2615 17.8635C45.6285 17.2306 44.7701 16.875 43.875 16.875ZM28.6875 33.461V38.8125C28.6875 39.2601 28.5097 39.6893 28.1932 40.0057C27.8768 40.3222 27.4476 40.5 27 40.5C26.5524 40.5 26.1232 40.3222 25.8068 40.0057C25.4903 39.6893 25.3125 39.2601 25.3125 38.8125V33.461C24.1866 33.0629 23.2376 32.2796 22.6334 31.2496C22.0291 30.2195 21.8085 29.009 22.0104 27.832C22.2124 26.6549 22.8239 25.5872 23.7369 24.8175C24.65 24.0477 25.8058 23.6255 27 23.6255C28.1942 23.6255 29.35 24.0477 30.2631 24.8175C31.1761 25.5872 31.7876 26.6549 31.9896 27.832C32.1915 29.009 31.9709 30.2195 31.3666 31.2496C30.7624 32.2796 29.8134 33.0629 28.6875 33.461ZM33.75 16.875H20.25V11.8125C20.25 10.0223 20.9612 8.3054 22.227 7.03953C23.4929 5.77366 25.2098 5.0625 27 5.0625C28.7902 5.0625 30.5071 5.77366 31.773 7.03953C33.0388 8.3054 33.75 10.0223 33.75 11.8125V16.875Z" fill="#EAF0FF"/>
</g>
<defs>
<clipPath id="clip0_300_5408">
<rect width="54" height="54" fill="white"/>
</clipPath>
</defs>
</svg>
