<svg width="50" height="50" viewBox="0 0 50 50" fill="none" xmlns="http://www.w3.org/2000/svg">
<rect width="50" height="50" rx="25" fill="white" fill-opacity="0.1"/>
<g clip-path="url(#clip0_320_19697)">
<path d="M25 28.75C27.0711 28.75 28.75 27.0711 28.75 25C28.75 22.9289 27.0711 21.25 25 21.25C22.9289 21.25 21.25 22.9289 21.25 25C21.25 27.0711 22.9289 28.75 25 28.75Z" stroke="#EAF0FF" stroke-width="1.5" stroke-linecap="round" stroke-linejoin="round"/>
<path d="M25.1922 32.3228C25.0665 32.3228 24.94 32.3228 24.8172 32.3228L21.8125 34C20.6428 33.6065 19.5578 32.9959 18.6147 32.2L18.6034 28.825C18.5368 28.72 18.474 28.6141 18.4159 28.5053L15.4281 26.8038C15.1928 25.6134 15.1928 24.3885 15.4281 23.1981L18.4131 21.5013C18.474 21.3934 18.5368 21.2866 18.6006 21.1816L18.6156 17.8066C19.5579 17.0084 20.6426 16.3955 21.8125 16L24.8125 17.6772C24.9381 17.6772 25.0647 17.6772 25.1875 17.6772L28.1875 16C29.3572 16.3935 30.4421 17.0041 31.3853 17.8L31.3965 21.175C31.4631 21.28 31.5259 21.3859 31.584 21.4947L34.57 23.1953C34.8053 24.3857 34.8053 25.6106 34.57 26.8009L31.585 28.4978C31.524 28.6056 31.4612 28.7125 31.3975 28.8175L31.3825 32.1925C30.4408 32.9908 29.3568 33.604 28.1875 34L25.1922 32.3228Z" stroke="#EAF0FF" stroke-width="1.5" stroke-linecap="round" stroke-linejoin="round"/>
</g>
<defs>
<clipPath id="clip0_320_19697">
<rect width="24" height="24" fill="white" transform="translate(13 13)"/>
</clipPath>
</defs>
</svg>
