<svg width="38" height="38" viewBox="0 0 38 38" fill="none" xmlns="http://www.w3.org/2000/svg">
<rect width="38" height="38" rx="10" fill="white" fill-opacity="0.1"/>
<g clip-path="url(#clip0_11_162)">
<path d="M19 9.25C16.4141 9.25 13.9342 10.2772 12.1057 12.1057C10.2772 13.9342 9.25 16.4141 9.25 19C9.25 21.5859 10.2772 24.0658 12.1057 25.8943C13.9342 27.7228 16.4141 28.75 19 28.75C19.1546 28.7492 19.3052 28.7006 19.4311 28.6109C19.557 28.5212 19.6521 28.3948 19.7034 28.2489C19.7547 28.1031 19.7597 27.945 19.7177 27.7962C19.6757 27.6474 19.5888 27.5153 19.4688 27.4178C19.3638 27.3325 17.5113 25.7941 16.5569 22.7519H18.9944C19.1933 22.7519 19.3841 22.6729 19.5247 22.5322C19.6654 22.3916 19.7444 22.2008 19.7444 22.0019C19.7444 21.803 19.6654 21.6122 19.5247 21.4715C19.3841 21.3309 19.1933 21.2519 18.9944 21.2519H16.195C15.9363 19.763 15.9363 18.2407 16.195 16.7519H21.8088C21.9378 17.4943 22.0018 18.2465 22 19C22 19.1989 22.079 19.3897 22.2197 19.5303C22.3603 19.671 22.5511 19.75 22.75 19.75C22.9489 19.75 23.1397 19.671 23.2803 19.5303C23.421 19.3897 23.5 19.1989 23.5 19C23.501 18.2467 23.4433 17.4944 23.3275 16.75H26.9378C27.1456 17.4819 27.2507 18.2392 27.25 19C27.25 19.1989 27.329 19.3897 27.4697 19.5303C27.6103 19.671 27.8011 19.75 28 19.75C28.1989 19.75 28.3897 19.671 28.5303 19.5303C28.671 19.3897 28.75 19.1989 28.75 19C28.7473 16.415 27.7192 13.9366 25.8913 12.1087C24.0634 10.2808 21.585 9.25273 19 9.25ZM16.5625 15.25C17.0428 13.6763 17.8765 12.2333 19 11.0312C20.1231 12.2336 20.9567 13.6765 21.4375 15.25H16.5625ZM23.0078 15.25C22.5869 13.7059 21.8776 12.2553 20.9172 10.975C22.0782 11.2533 23.1653 11.7794 24.1039 12.5173C25.0425 13.2552 25.8103 14.1874 26.3547 15.25H23.0078ZM27.7844 23.2806L26.0603 25L27.7806 26.7194C27.8503 26.7891 27.9056 26.8718 27.9433 26.9628C27.981 27.0539 28.0004 27.1515 28.0004 27.25C28.0004 27.3485 27.981 27.4461 27.9433 27.5372C27.9056 27.6282 27.8503 27.7109 27.7806 27.7806C27.7109 27.8503 27.6282 27.9056 27.5372 27.9433C27.4461 27.981 27.3485 28.0004 27.25 28.0004C27.1515 28.0004 27.0539 27.981 26.9628 27.9433C26.8718 27.9056 26.7891 27.8503 26.7194 27.7806L25 26.0603L23.2806 27.7806C23.1399 27.9214 22.949 28.0004 22.75 28.0004C22.551 28.0004 22.3601 27.9214 22.2194 27.7806C22.0786 27.6399 21.9996 27.449 21.9996 27.25C21.9996 27.051 22.0786 26.8601 22.2194 26.7194L23.9397 25L22.2194 23.2806C22.0786 23.1399 21.9996 22.949 21.9996 22.75C21.9996 22.551 22.0786 22.3601 22.2194 22.2194C22.3601 22.0786 22.551 21.9996 22.75 21.9996C22.949 21.9996 23.1399 22.0786 23.2806 22.2194L25 23.9397L26.7194 22.2194C26.8601 22.0786 27.051 21.9996 27.25 21.9996C27.449 21.9996 27.6399 22.0786 27.7806 22.2194C27.9214 22.3601 28.0004 22.551 28.0004 22.75C28.0004 22.949 27.9214 23.1399 27.7806 23.2806H27.7844Z" fill="#EAF0FF"/>
</g>
<defs>
<clipPath id="clip0_11_162">
<rect x="7" y="7" width="24" height="24" fill="white"/>
</clipPath>
</defs>
</svg>
