<svg width="179" height="56" viewBox="0 0 179 56" fill="none" xmlns="http://www.w3.org/2000/svg">
<rect width="56" height="56" rx="28" fill="#3730EA"/>
<rect x="13" y="15" width="6" height="6" fill="#EAF0FF"/>
<rect x="13" y="27" width="6" height="6" fill="#EAF0FF"/>
<path d="M37 21.4287H43V27.404H37V21.4287Z" fill="#EAF0FF"/>
<rect x="37" y="33.6426" width="6" height="6" fill="#EAF0FF"/>
<path d="M19 21.0004H25.3214L31.3214 15.5361H37V21.429H32.7143L26.1786 27.0004H19V21.0004Z" fill="#EAF0FF"/>
<path d="M19 33.0005H25.3214L31.3214 27.4043H37V33.6433H32.7143L26.1786 39.0005H19V33.0005Z" fill="#EAF0FF"/>
<path d="M68.336 39.5V17.1H74.832L79.728 37.196H80.24L85.136 17.1H91.632V39.5H88.272V19.532H87.76L82.896 39.5H77.072L72.208 19.532H71.696V39.5H68.336ZM102.449 39.788C101.254 39.788 100.187 39.5213 99.2488 38.988C98.3101 38.4547 97.5741 37.6973 97.0408 36.716C96.5074 35.7347 96.2408 34.5613 96.2408 33.196V23.724H99.5368V32.972C99.5368 34.3373 99.8781 35.3507 100.561 36.012C101.243 36.652 102.193 36.972 103.409 36.972C104.753 36.972 105.83 36.524 106.641 35.628C107.473 34.7107 107.889 33.3987 107.889 31.692V23.724H111.185V39.5H107.953V37.132H107.441C107.142 37.772 106.609 38.38 105.841 38.956C105.073 39.5107 103.942 39.788 102.449 39.788ZM121.977 39.5C121.017 39.5 120.249 39.212 119.673 38.636C119.118 38.06 118.841 37.292 118.841 36.332V26.508H114.489V23.724H118.841V18.508H122.137V23.724H126.841V26.508H122.137V35.756C122.137 36.396 122.436 36.716 123.033 36.716H126.329V39.5H121.977ZM135.578 39.948C134.447 39.948 133.434 39.756 132.538 39.372C131.663 38.988 130.959 38.4227 130.426 37.676C129.914 36.9293 129.658 36.0227 129.658 34.956C129.658 33.868 129.914 32.972 130.426 32.268C130.959 31.5427 131.674 30.9987 132.57 30.636C133.487 30.2733 134.522 30.092 135.674 30.092H140.474V29.068C140.474 28.1507 140.197 27.4147 139.642 26.86C139.087 26.3053 138.234 26.028 137.082 26.028C135.951 26.028 135.087 26.2947 134.49 26.828C133.893 27.3613 133.498 28.0547 133.306 28.908L130.234 27.916C130.49 27.0627 130.895 26.2947 131.45 25.612C132.026 24.908 132.783 24.3427 133.722 23.916C134.661 23.4893 135.791 23.276 137.114 23.276C139.162 23.276 140.773 23.7987 141.946 24.844C143.119 25.8893 143.706 27.372 143.706 29.292V35.788C143.706 36.428 144.005 36.748 144.602 36.748H145.946V39.5H143.482C142.735 39.5 142.127 39.308 141.658 38.924C141.189 38.54 140.954 38.0173 140.954 37.356V37.26H140.474C140.303 37.58 140.047 37.9533 139.706 38.38C139.365 38.8067 138.863 39.18 138.202 39.5C137.541 39.7987 136.666 39.948 135.578 39.948ZM136.058 37.228C137.381 37.228 138.447 36.8547 139.258 36.108C140.069 35.34 140.474 34.2947 140.474 32.972V32.652H135.866C134.991 32.652 134.287 32.844 133.754 33.228C133.221 33.5907 132.954 34.1347 132.954 34.86C132.954 35.5853 133.231 36.1613 133.786 36.588C134.341 37.0147 135.098 37.228 136.058 37.228ZM153.977 39.5C153.017 39.5 152.249 39.212 151.673 38.636C151.118 38.06 150.841 37.292 150.841 36.332V26.508H146.489V23.724H150.841V18.508H154.137V23.724H158.841V26.508H154.137V35.756C154.137 36.396 154.436 36.716 155.033 36.716H158.329V39.5H153.977ZM169.383 39.948C167.783 39.948 166.385 39.6173 165.191 38.956C163.996 38.2733 163.057 37.324 162.375 36.108C161.713 34.8707 161.383 33.4413 161.383 31.82V31.436C161.383 29.7933 161.713 28.364 162.375 27.148C163.036 25.9107 163.953 24.9613 165.127 24.3C166.321 23.6173 167.697 23.276 169.255 23.276C170.769 23.276 172.092 23.6173 173.223 24.3C174.375 24.9613 175.271 25.8893 175.911 27.084C176.551 28.2787 176.871 29.676 176.871 31.276V32.524H164.743C164.785 33.9107 165.244 35.02 166.119 35.852C167.015 36.6627 168.124 37.068 169.447 37.068C170.684 37.068 171.612 36.7907 172.231 36.236C172.871 35.6813 173.361 35.0413 173.703 34.316L176.423 35.724C176.124 36.3213 175.687 36.9507 175.111 37.612C174.556 38.2733 173.82 38.828 172.903 39.276C171.985 39.724 170.812 39.948 169.383 39.948ZM164.775 29.996H173.511C173.425 28.8013 172.999 27.8733 172.231 27.212C171.463 26.5293 170.46 26.188 169.223 26.188C167.985 26.188 166.972 26.5293 166.183 27.212C165.415 27.8733 164.945 28.8013 164.775 29.996Z" fill="white"/>
</svg>
