<svg width="40" height="40" viewBox="0 0 40 40" fill="none" xmlns="http://www.w3.org/2000/svg">
<rect x="0.5" y="0.5" width="39" height="39" rx="7.5" stroke="#8B91CF" stroke-opacity="0.1"/>
<path fill-rule="evenodd" clip-rule="evenodd" d="M27.8248 10.1368C28.083 10.0157 28.3656 9.97389 28.6432 10.0158C28.9208 10.0578 29.1832 10.1819 29.4032 10.3752C29.6232 10.5686 29.7926 10.8242 29.8939 11.1154C29.9952 11.4065 30.0247 11.7227 29.9792 12.0308L27.6095 28.0553C27.3797 29.601 25.8584 30.4875 24.5868 29.7175C23.5232 29.0734 21.9434 28.0809 20.5224 27.0454C19.8119 26.5271 17.6355 24.8672 17.903 23.6861C18.1328 22.6762 21.7898 18.8812 23.8794 16.6249C24.6996 15.7385 24.3256 15.2271 23.357 16.0425C20.9508 18.0669 17.0901 21.1456 15.8133 22.0122C14.6869 22.7763 14.0997 22.9068 13.3976 22.7763C12.1166 22.5387 10.9287 22.1706 9.95905 21.7222C8.64882 21.1165 8.71255 19.1083 9.958 18.5236L27.8248 10.1368Z" fill="#EAF0FF"/>
</svg>
