<svg width="100" height="34" viewBox="0 0 100 34" fill="none" xmlns="http://www.w3.org/2000/svg">
<rect width="33.1225" height="33.1225" rx="16.5612" fill="#3730EA"/>
<rect x="7.68945" y="8.87207" width="3.54884" height="3.54884" fill="#EAF0FF"/>
<rect x="7.68945" y="15.9697" width="3.54884" height="3.54884" fill="#EAF0FF"/>
<path d="M21.8843 12.6748H25.4331V16.209H21.8843V12.6748Z" fill="#EAF0FF"/>
<rect x="21.8843" y="19.8994" width="3.54884" height="3.54884" fill="#EAF0FF"/>
<path d="M11.2383 12.4205H14.9772L18.5261 9.18848H21.8848V12.6739H19.3499L15.4842 15.9693H11.2383V12.4205Z" fill="#EAF0FF"/>
<path d="M11.2383 19.519H14.9772L18.5261 16.209H21.8848V19.8992H19.3499L15.4842 23.0678H11.2383V19.519Z" fill="#EAF0FF"/>
<path d="M41.3364 22.0615V10.4687H44.6983L47.2322 20.8691H47.4972L50.0311 10.4687H53.393V22.0615H51.6541V11.7273H51.3891L48.8718 22.0615H45.8576L43.3403 11.7273H43.0753V22.0615H41.3364ZM58.9911 22.2106C58.3728 22.2106 57.8208 22.0726 57.335 21.7965C56.8492 21.5205 56.4683 21.1286 56.1922 20.6207C55.9162 20.1128 55.7782 19.5056 55.7782 18.799V13.8968H57.484V18.683C57.484 19.3896 57.6607 19.9141 58.014 20.2563C58.3673 20.5876 58.8586 20.7532 59.4879 20.7532C60.1835 20.7532 60.7411 20.5213 61.1606 20.0576C61.5912 19.5829 61.8065 18.9038 61.8065 18.0206V13.8968H63.5123V22.0615H61.8396V20.836H61.5746C61.4201 21.1672 61.144 21.4819 60.7466 21.78C60.3491 22.067 59.7639 22.2106 58.9911 22.2106ZM69.0977 22.0615C68.6009 22.0615 68.2034 21.9125 67.9053 21.6144C67.6182 21.3163 67.4747 20.9188 67.4747 20.422V15.3377H65.2224V13.8968H67.4747V11.1973H69.1805V13.8968H71.615V15.3377H69.1805V20.1239C69.1805 20.4551 69.3351 20.6207 69.6442 20.6207H71.35V22.0615H69.0977ZM76.1368 22.2934C75.5516 22.2934 75.0272 22.194 74.5634 21.9953C74.1108 21.7965 73.7464 21.504 73.4704 21.1175C73.2054 20.7311 73.0729 20.2619 73.0729 19.7098C73.0729 19.1467 73.2054 18.683 73.4704 18.3187C73.7464 17.9433 74.1163 17.6618 74.58 17.4741C75.0548 17.2864 75.5902 17.1925 76.1864 17.1925H78.6706V16.6626C78.6706 16.1878 78.5271 15.8069 78.24 15.5198C77.953 15.2328 77.5113 15.0892 76.9151 15.0892C76.33 15.0892 75.8828 15.2272 75.5737 15.5033C75.2645 15.7793 75.0603 16.1381 74.9609 16.5798L73.371 16.0664C73.5035 15.6247 73.7133 15.2273 74.0004 14.8739C74.2985 14.5096 74.6904 14.217 75.1762 13.9962C75.662 13.7754 76.2472 13.665 76.9317 13.665C77.9916 13.665 78.8252 13.9355 79.4324 14.4765C80.0397 15.0175 80.3433 15.7848 80.3433 16.7785V20.1404C80.3433 20.4716 80.4979 20.6373 80.807 20.6373H81.5026V22.0615H80.2274C79.841 22.0615 79.5263 21.9622 79.2834 21.7634C79.0405 21.5647 78.919 21.2942 78.919 20.9519V20.9022H78.6706C78.5823 21.0678 78.4498 21.2611 78.2732 21.4819C78.0965 21.7027 77.837 21.8959 77.4948 22.0615C77.1525 22.2161 76.6998 22.2934 76.1368 22.2934ZM76.3852 20.8857C77.0697 20.8857 77.6218 20.6925 78.0413 20.306C78.4609 19.9086 78.6706 19.3676 78.6706 18.683V18.5174H76.2858C75.8331 18.5174 75.4688 18.6168 75.1928 18.8155C74.9167 19.0032 74.7787 19.2848 74.7787 19.6601C74.7787 20.0355 74.9223 20.3336 75.2093 20.5545C75.4964 20.7753 75.8883 20.8857 76.3852 20.8857ZM85.659 22.0615C85.1621 22.0615 84.7646 21.9125 84.4665 21.6144C84.1795 21.3163 84.036 20.9188 84.036 20.422V15.3377H81.7836V13.8968H84.036V11.1973H85.7418V13.8968H88.1763V15.3377H85.7418V20.1239C85.7418 20.4551 85.8963 20.6207 86.2055 20.6207H87.9113V22.0615H85.659ZM93.632 22.2934C92.804 22.2934 92.0808 22.1222 91.4625 21.78C90.8442 21.4267 90.3584 20.9354 90.0051 20.306C89.6629 19.6657 89.4917 18.9259 89.4917 18.0868V17.8881C89.4917 17.0379 89.6629 16.2982 90.0051 15.6689C90.3474 15.0285 90.8221 14.5372 91.4294 14.1949C92.0477 13.8416 92.7598 13.665 93.5658 13.665C94.3497 13.665 95.0342 13.8416 95.6194 14.1949C96.2156 14.5372 96.6793 15.0175 97.0105 15.6358C97.3417 16.254 97.5074 16.9772 97.5074 17.8053V18.4512H91.2307C91.2527 19.1688 91.4901 19.7429 91.9428 20.1735C92.4065 20.5931 92.9806 20.8029 93.6652 20.8029C94.3055 20.8029 94.7858 20.6593 95.106 20.3723C95.4372 20.0852 95.6911 19.754 95.8678 19.3786L97.2755 20.1073C97.1209 20.4164 96.8946 20.7421 96.5965 21.0844C96.3094 21.4267 95.9285 21.7137 95.4538 21.9456C94.979 22.1775 94.3718 22.2934 93.632 22.2934ZM91.2472 17.1428H95.7684C95.7243 16.5245 95.5035 16.0443 95.106 15.702C94.7085 15.3487 94.1896 15.172 93.5492 15.172C92.9089 15.172 92.3844 15.3487 91.9759 15.702C91.5784 16.0443 91.3355 16.5245 91.2472 17.1428Z" fill="white"/>
</svg>
