<svg width="18" height="19" viewBox="0 0 18 19" fill="none" xmlns="http://www.w3.org/2000/svg">
<path d="M6.5 17.7506V11.7506H11V17.7506H17V8.75059C17.0001 8.65207 16.9807 8.5545 16.9431 8.46345C16.9055 8.37241 16.8503 8.28967 16.7806 8.21996L9.28063 0.719965C9.21097 0.650233 9.12825 0.594913 9.03721 0.55717C8.94616 0.519427 8.84856 0.5 8.75 0.5C8.65144 0.5 8.55384 0.519427 8.46279 0.55717C8.37175 0.594913 8.28903 0.650233 8.21937 0.719965L0.719375 8.21996C0.649749 8.28967 0.594539 8.37241 0.556898 8.46345C0.519257 8.5545 0.499923 8.65207 0.5 8.75059V17.7506H6.5Z" stroke="#EAF0FF" stroke-linecap="round" stroke-linejoin="round"/>
</svg>
