<svg width="121" height="125" viewBox="0 0 121 125" fill="none" xmlns="http://www.w3.org/2000/svg">
<g filter="url(#filter0_dii_320_25718)">
<rect x="20" y="20" width="51" height="51" rx="25.5" fill="#3730EA"/>
<g clip-path="url(#clip0_320_25718)">
<path d="M55.75 45.625C55.7473 48.1106 54.7587 50.4935 53.0011 52.2511C51.2435 54.0087 48.8606 54.9973 46.375 55H38.5C38.1022 55 37.7206 54.842 37.4393 54.5607C37.158 54.2794 37 53.8978 37 53.5V45.625C37 43.1386 37.9877 40.754 39.7459 38.9959C41.504 37.2377 43.8886 36.25 46.375 36.25C48.8614 36.25 51.246 37.2377 53.0041 38.9959C54.7623 40.754 55.75 43.1386 55.75 45.625Z" fill="#EAF0FF"/>
</g>
</g>
<defs>
<filter id="filter0_dii_320_25718" x="-30" y="-26" width="151" height="151" filterUnits="userSpaceOnUse" color-interpolation-filters="sRGB">
<feFlood flood-opacity="0" result="BackgroundImageFix"/>
<feColorMatrix in="SourceAlpha" type="matrix" values="0 0 0 0 0 0 0 0 0 0 0 0 0 0 0 0 0 0 127 0" result="hardAlpha"/>
<feOffset dy="4"/>
<feGaussianBlur stdDeviation="25"/>
<feComposite in2="hardAlpha" operator="out"/>
<feColorMatrix type="matrix" values="0 0 0 0 0.215686 0 0 0 0 0.188235 0 0 0 0 0.917647 0 0 0 1 0"/>
<feBlend mode="normal" in2="BackgroundImageFix" result="effect1_dropShadow_320_25718"/>
<feBlend mode="normal" in="SourceGraphic" in2="BackgroundImageFix" result="shape"/>
<feColorMatrix in="SourceAlpha" type="matrix" values="0 0 0 0 0 0 0 0 0 0 0 0 0 0 0 0 0 0 127 0" result="hardAlpha"/>
<feOffset dx="2" dy="2"/>
<feGaussianBlur stdDeviation="4"/>
<feComposite in2="hardAlpha" operator="arithmetic" k2="-1" k3="1"/>
<feColorMatrix type="matrix" values="0 0 0 0 1 0 0 0 0 1 0 0 0 0 1 0 0 0 0.75 0"/>
<feBlend mode="normal" in2="shape" result="effect2_innerShadow_320_25718"/>
<feColorMatrix in="SourceAlpha" type="matrix" values="0 0 0 0 0 0 0 0 0 0 0 0 0 0 0 0 0 0 127 0" result="hardAlpha"/>
<feOffset dx="-2" dy="-2"/>
<feGaussianBlur stdDeviation="4"/>
<feComposite in2="hardAlpha" operator="arithmetic" k2="-1" k3="1"/>
<feColorMatrix type="matrix" values="0 0 0 0 1 0 0 0 0 1 0 0 0 0 1 0 0 0 0.31 0"/>
<feBlend mode="normal" in2="effect2_innerShadow_320_25718" result="effect3_innerShadow_320_25718"/>
<feBlend mode="normal" in="effect3_innerShadow_320_25718" in2="effect1_dropShadow_320_25718" result="effect3_innerShadow_320_25718"/>
</filter>
<clipPath id="clip0_320_25718">
<rect width="24" height="24" fill="white" transform="translate(34 34)"/>
</clipPath>
</defs>
</svg>
