<svg width="76" height="76" viewBox="0 0 76 76" fill="none" xmlns="http://www.w3.org/2000/svg">
<g opacity="0.5" clip-path="url(#clip0_320_13432)">
<path d="M63.5075 62.5244C63.7217 62.7545 63.888 63.0247 63.997 63.3195C64.1059 63.6143 64.1552 63.9278 64.1421 64.2418C64.129 64.5559 64.0537 64.8641 63.9205 65.1488C63.7874 65.4335 63.5991 65.6889 63.3665 65.9003C63.1339 66.1117 62.8617 66.2748 62.5656 66.3802C62.2695 66.4856 61.9554 66.5312 61.6416 66.5143C61.3278 66.4974 61.0204 66.4184 60.7373 66.2818C60.4543 66.1453 60.2011 65.9539 59.9925 65.7188L56.3825 61.7496H24.6406L14.9625 70.1096L14.9388 70.1304C14.0824 70.8547 12.9966 71.2514 11.875 71.2496C11.1773 71.248 10.4883 71.094 9.85627 70.7983C9.0365 70.4195 8.34308 69.8127 7.85878 69.0504C7.37448 68.2882 7.11976 67.4027 7.12502 66.4996V18.9996C7.12502 17.7398 7.62546 16.5316 8.51626 15.6408C9.40706 14.75 10.6152 14.2496 11.875 14.2496H13.1991L12.4925 13.4718C12.2784 13.2417 12.112 12.9715 12.0031 12.6767C11.8942 12.3819 11.8448 12.0684 11.8579 11.7544C11.8711 11.4404 11.9464 11.1321 12.0795 10.8474C12.2127 10.5627 12.401 10.3073 12.6336 10.0959C12.8662 9.88452 13.1384 9.72141 13.4345 9.61602C13.7306 9.51063 14.0446 9.46506 14.3585 9.48195C14.6723 9.49883 14.9796 9.57783 15.2627 9.71438C15.5458 9.85092 15.799 10.0423 16.0075 10.2774L63.5075 62.5244ZM64.125 14.2496H28.7227C28.4916 14.2473 28.265 14.3124 28.0704 14.437C27.8758 14.5617 27.7219 14.7403 27.6273 14.9511C27.5328 15.162 27.5018 15.3958 27.5382 15.6239C27.5745 15.8521 27.6767 16.0647 27.8321 16.2357L66.7969 59.0955C66.9572 59.2773 67.1692 59.4057 67.4046 59.4634C67.6399 59.5212 67.8873 59.5056 68.1136 59.4186C68.3398 59.3317 68.534 59.1776 68.6701 58.9771C68.8062 58.7766 68.8777 58.5393 68.875 58.2969V18.9996C68.875 17.7398 68.3746 16.5316 67.4838 15.6408C66.593 14.75 65.3848 14.2496 64.125 14.2496Z" fill="#EAF0FF" fill-opacity="0.3"/>
</g>
<defs>
<clipPath id="clip0_320_13432">
<rect width="76" height="76" fill="white"/>
</clipPath>
</defs>
</svg>
