<svg width="121" height="125" viewBox="0 0 121 125" fill="none" xmlns="http://www.w3.org/2000/svg">
<g filter="url(#filter0_dii_320_25734)">
<rect x="20" y="20" width="51" height="51" rx="25.5" fill="#3730EA"/>
<g clip-path="url(#clip0_320_25734)">
<path d="M41.875 45.2502C41.875 44.4344 42.1169 43.6368 42.5702 42.9585C43.0234 42.2801 43.6677 41.7514 44.4214 41.4392C45.1752 41.127 46.0046 41.0453 46.8047 41.2045C47.6049 41.3636 48.3399 41.7565 48.9168 42.3334C49.4937 42.9103 49.8866 43.6453 50.0457 44.4455C50.2049 45.2456 50.1232 46.075 49.811 46.8288C49.4988 47.5825 48.9701 48.2268 48.2917 48.68C47.6134 49.1333 46.8158 49.3752 46 49.3752C44.906 49.3752 43.8568 48.9406 43.0832 48.167C42.3096 47.3934 41.875 46.3442 41.875 45.2502ZM53.7025 50.6108C53.5354 50.5138 53.3379 50.4832 53.1493 50.5251C52.9607 50.5669 52.7947 50.6782 52.6844 50.8368C52.5227 51.0594 52.35 51.2737 52.1669 51.479C51.6212 50.687 50.9279 50.0077 50.125 49.4783C50.0565 49.4329 49.975 49.4113 49.893 49.4167C49.8111 49.4221 49.7331 49.4543 49.6712 49.5083C48.6524 50.39 47.3501 50.8752 46.0028 50.8752C44.6555 50.8752 43.3532 50.39 42.3344 49.5083C42.272 49.453 42.193 49.42 42.1098 49.4145C42.0266 49.4091 41.944 49.4316 41.875 49.4783C41.0719 50.0067 40.3783 50.685 39.8322 51.4761C38.6609 50.1609 37.9432 48.5042 37.7847 46.7502H39.2284C39.3498 46.7521 39.4699 46.7253 39.579 46.6718C39.688 46.6184 39.7828 46.5398 39.8556 46.4427C39.9613 46.2982 40.0118 46.1207 39.9981 45.9423C39.9843 45.7638 39.9072 45.5962 39.7806 45.4696L37.5306 43.2196C37.461 43.1499 37.3782 43.0945 37.2872 43.0568C37.1961 43.019 37.0985 42.9996 37 42.9996C36.9014 42.9996 36.8038 43.019 36.7128 43.0568C36.6217 43.0945 36.539 43.1499 36.4694 43.2196L34.2194 45.4696C34.0928 45.5962 34.0157 45.7638 34.0019 45.9423C33.9882 46.1207 34.0387 46.2982 34.1444 46.4427C34.2172 46.5398 34.312 46.6184 34.421 46.6718C34.53 46.7253 34.6502 46.7521 34.7715 46.7502H36.2781C36.4315 48.7442 37.1943 50.6427 38.4632 52.1885C39.7321 53.7343 41.4456 54.8525 43.3714 55.3915C45.2973 55.9306 47.3423 55.8643 49.2293 55.2018C51.1162 54.5394 52.7538 53.3126 53.92 51.688C53.9802 51.6043 54.0224 51.509 54.0441 51.4082C54.0658 51.3073 54.0664 51.2031 54.046 51.102C54.0256 51.0009 53.9846 50.9051 53.9255 50.8206C53.8663 50.7361 53.7904 50.6647 53.7025 50.6108ZM57.9428 45.7133C57.8861 45.5763 57.79 45.4591 57.6666 45.3767C57.5433 45.2943 57.3983 45.2502 57.25 45.2502H55.7219C55.5685 43.2562 54.8056 41.3577 53.5368 39.8119C52.2679 38.2661 50.5544 37.1479 48.6285 36.6089C46.7027 36.0699 44.6577 36.1361 42.7707 36.7986C40.8838 37.4611 39.2462 38.6878 38.08 40.3124C37.9639 40.474 37.9167 40.6751 37.9489 40.8715C37.9811 41.0679 38.0899 41.2435 38.2515 41.3596C38.4132 41.4757 38.6143 41.5229 38.8107 41.4907C39.0071 41.4585 39.1826 41.3496 39.2987 41.188C40.2799 39.8219 41.6552 38.7884 43.2402 38.2258C44.8253 37.6633 46.5444 37.5987 48.1673 38.0406C49.7901 38.4826 51.2391 39.41 52.32 40.6985C53.401 41.9871 54.0623 43.5753 54.2153 45.2502H52.75C52.6016 45.2501 52.4564 45.294 52.333 45.3764C52.2096 45.4588 52.1133 45.576 52.0565 45.7131C51.9997 45.8502 51.9849 46.0011 52.0138 46.1467C52.0428 46.2923 52.1144 46.4259 52.2194 46.5308L54.4694 48.7808C54.539 48.8506 54.6217 48.9059 54.7128 48.9436C54.8038 48.9814 54.9014 49.0008 55 49.0008C55.0985 49.0008 55.1961 48.9814 55.2872 48.9436C55.3782 48.9059 55.461 48.8506 55.5306 48.7808L57.7806 46.5308C57.8855 46.4259 57.9568 46.2922 57.9857 46.1467C58.0146 46.0012 57.9996 45.8504 57.9428 45.7133Z" fill="#EAF0FF"/>
</g>
</g>
<defs>
<filter id="filter0_dii_320_25734" x="-30" y="-26" width="151" height="151" filterUnits="userSpaceOnUse" color-interpolation-filters="sRGB">
<feFlood flood-opacity="0" result="BackgroundImageFix"/>
<feColorMatrix in="SourceAlpha" type="matrix" values="0 0 0 0 0 0 0 0 0 0 0 0 0 0 0 0 0 0 127 0" result="hardAlpha"/>
<feOffset dy="4"/>
<feGaussianBlur stdDeviation="25"/>
<feComposite in2="hardAlpha" operator="out"/>
<feColorMatrix type="matrix" values="0 0 0 0 0.215686 0 0 0 0 0.188235 0 0 0 0 0.917647 0 0 0 1 0"/>
<feBlend mode="normal" in2="BackgroundImageFix" result="effect1_dropShadow_320_25734"/>
<feBlend mode="normal" in="SourceGraphic" in2="BackgroundImageFix" result="shape"/>
<feColorMatrix in="SourceAlpha" type="matrix" values="0 0 0 0 0 0 0 0 0 0 0 0 0 0 0 0 0 0 127 0" result="hardAlpha"/>
<feOffset dx="2" dy="2"/>
<feGaussianBlur stdDeviation="4"/>
<feComposite in2="hardAlpha" operator="arithmetic" k2="-1" k3="1"/>
<feColorMatrix type="matrix" values="0 0 0 0 1 0 0 0 0 1 0 0 0 0 1 0 0 0 0.75 0"/>
<feBlend mode="normal" in2="shape" result="effect2_innerShadow_320_25734"/>
<feColorMatrix in="SourceAlpha" type="matrix" values="0 0 0 0 0 0 0 0 0 0 0 0 0 0 0 0 0 0 127 0" result="hardAlpha"/>
<feOffset dx="-2" dy="-2"/>
<feGaussianBlur stdDeviation="4"/>
<feComposite in2="hardAlpha" operator="arithmetic" k2="-1" k3="1"/>
<feColorMatrix type="matrix" values="0 0 0 0 1 0 0 0 0 1 0 0 0 0 1 0 0 0 0.31 0"/>
<feBlend mode="normal" in2="effect2_innerShadow_320_25734" result="effect3_innerShadow_320_25734"/>
<feBlend mode="normal" in="effect3_innerShadow_320_25734" in2="effect1_dropShadow_320_25734" result="effect3_innerShadow_320_25734"/>
</filter>
<clipPath id="clip0_320_25734">
<rect width="24" height="24" fill="white" transform="translate(34 34)"/>
</clipPath>
</defs>
</svg>
